<svg width="480" height="140" viewBox="0 0 480 140" fill="none" xmlns="http://www.w3.org/2000/svg">
  <rect width="480" height="140" rx="34" fill="#111827"/>
  <rect x="20" y="20" width="100" height="100" rx="28" fill="#F8FAFC"/>
  <circle cx="55" cy="56" r="14" fill="#0F172A"/>
  <circle cx="87" cy="56" r="14" fill="#D97706"/>
  <rect x="41" y="76" width="60" height="18" rx="9" fill="#0F172A"/>
  <path d="M162 49.88H178.08C196.48 49.88 207.84 60.2 207.84 76.76C207.84 93.32 196.48 103.72 178.08 103.72H162V49.88ZM177.28 93.96C189.28 93.96 196.16 87.56 196.16 76.76C196.16 65.96 189.28 59.64 177.28 59.64H173.6V93.96H177.28Z" fill="#F8FAFC"/>
  <path d="M216.496 76.84C216.496 60.44 227.936 49 244.336 49C260.736 49 272.176 60.44 272.176 76.84C272.176 93.16 260.736 104.6 244.336 104.6C227.936 104.6 216.496 93.16 216.496 76.84ZM260.416 76.84C260.416 66.04 253.296 58.84 244.336 58.84C235.376 58.84 228.256 66.04 228.256 76.84C228.256 87.56 235.376 94.76 244.336 94.76C253.296 94.76 260.416 87.56 260.416 76.84Z" fill="#F8FAFC"/>
  <path d="M281.961 49.88H292.841L321.801 85.72V49.88H333.321V103.72H322.441L293.481 67.88V103.72H281.961V49.88Z" fill="#F8FAFC"/>
  <path d="M343.953 49.88H355.553V103.72H343.953V49.88Z" fill="#F8FAFC"/>
  <path d="M366.756 49.88H390.356C402.196 49.88 409.316 56.52 409.316 66.68C409.316 73.24 405.636 77.72 399.316 79.8L410.916 103.72H398.036L387.636 81.48H378.356V103.72H366.756V49.88ZM389.156 72.36C394.836 72.36 397.716 70.12 397.716 66.2C397.716 62.44 394.836 60.2 389.156 60.2H378.356V72.36H389.156Z" fill="#F8FAFC"/>
  <path d="M419.629 49.88H459.069V59.4H431.229V71.08H454.589V80.52H431.229V94.2H459.789V103.72H419.629V49.88Z" fill="#F8FAFC"/>
</svg>
